<svg
            width="81"
            height="82"
            viewBox="0 0 81 82"
            fill="none"
            xmlns="http://www.w3.org/2000/svg"
            className="absolute left-0 right-1 top-0.5 mt-[17px] bottom-0.5"
          >
            <path
              fillRule="evenodd"
              clipRule="evenodd"
              d="M0 5.8C0 4.26174 0.605802 2.78649 1.68414 1.69878C2.76247 0.611069 4.22501 0 5.75 0H23C24.525 0 25.9875 0.611069 27.0659 1.69878C28.1442 2.78649 28.75 4.26174 28.75 5.8V23.2C28.75 24.7383 28.1442 26.2135 27.0659 27.3012C25.9875 28.3889 24.525 29 23 29H5.75C4.22501 29 2.76247 28.3889 1.68414 27.3012C0.605802 26.2135 0 24.7383 0 23.2V5.8ZM11.5 17.4V11.6H17.25V17.4H11.5ZM0 58C0 56.4617 0.605802 54.9865 1.68414 53.8988C2.76247 52.8111 4.22501 52.2 5.75 52.2H23C24.525 52.2 25.9875 52.8111 27.0659 53.8988C28.1442 54.9865 28.75 56.4617 28.75 58V75.4C28.75 76.9383 28.1442 78.4135 27.0659 79.5012C25.9875 80.5889 24.525 81.2 23 81.2H5.75C4.22501 81.2 2.76247 80.5889 1.68414 79.5012C0.605802 78.4135 0 76.9383 0 75.4V58ZM11.5 69.6V63.8H17.25V69.6H11.5ZM57.5 0C55.975 0 54.5125 0.611069 53.4341 1.69878C52.3558 2.78649 51.75 4.26174 51.75 5.8V23.2C51.75 24.7383 52.3558 26.2135 53.4341 27.3012C54.5125 28.3889 55.975 29 57.5 29H74.75C76.275 29 77.7375 28.3889 78.8159 27.3012C79.8942 26.2135 80.5 24.7383 80.5 23.2V5.8C80.5 4.26174 79.8942 2.78649 78.8159 1.69878C77.7375 0.611069 76.275 0 74.75 0H57.5ZM63.25 11.6V17.4H69V11.6H63.25Z"
              fill="white"
            />
          </svg>