<svg width="81" height="82" viewBox="0 0 81 82" fill="none" xmlns="http://www.w3.org/2000/svg">
<path fill-rule="evenodd" clip-rule="evenodd" d="M0.5 5.8C0.5 4.26174 1.1058 2.78649 2.18414 1.69878C3.26247 0.611069 4.72501 0 6.25 0H23.5C25.025 0 26.4875 0.611069 27.5659 1.69878C28.6442 2.78649 29.25 4.26174 29.25 5.8V23.2C29.25 24.7383 28.6442 26.2135 27.5659 27.3012C26.4875 28.3889 25.025 29 23.5 29H6.25C4.72501 29 3.26247 28.3889 2.18414 27.3012C1.1058 26.2135 0.5 24.7383 0.5 23.2V5.8ZM12 17.4V11.6H17.75V17.4H12ZM0.5 58C0.5 56.4617 1.1058 54.9865 2.18414 53.8988C3.26247 52.8111 4.72501 52.2 6.25 52.2H23.5C25.025 52.2 26.4875 52.8111 27.5659 53.8988C28.6442 54.9865 29.25 56.4617 29.25 58V75.4C29.25 76.9383 28.6442 78.4135 27.5659 79.5012C26.4875 80.5889 25.025 81.2 23.5 81.2H6.25C4.72501 81.2 3.26247 80.5889 2.18414 79.5012C1.1058 78.4135 0.5 76.9383 0.5 75.4V58ZM12 69.6V63.8H17.75V69.6H12ZM58 0C56.475 0 55.0125 0.611069 53.9341 1.69878C52.8558 2.78649 52.25 4.26174 52.25 5.8V23.2C52.25 24.7383 52.8558 26.2135 53.9341 27.3012C55.0125 28.3889 56.475 29 58 29H75.25C76.775 29 78.2375 28.3889 79.3159 27.3012C80.3942 26.2135 81 24.7383 81 23.2V5.8C81 4.26174 80.3942 2.78649 79.3159 1.69878C78.2375 0.611069 76.775 0 75.25 0H58ZM63.75 11.6V17.4H69.5V11.6H63.75Z" fill="white"/>
</svg>

