<svg width="81" height="82" viewBox="0 0 81 82" fill="none" xmlns="http://www.w3.org/2000/svg">
<path d="M46 5.8C46 4.26174 45.3942 2.78649 44.3159 1.69878C43.2375 0.611069 41.775 0 40.25 0C38.725 0 37.2625 0.611069 36.1841 1.69878C35.1058 2.78649 34.5 4.26174 34.5 5.8V11.6C34.5 13.1383 35.1058 14.6135 36.1841 15.7012C37.2625 16.7889 38.725 17.4 40.25 17.4C41.775 17.4 43.2375 16.7889 44.3159 15.7012C45.3942 14.6135 46 13.1383 46 11.6V5.8ZM40.25 23.2C41.775 23.2 43.2375 23.8111 44.3159 24.8988C45.3942 25.9865 46 27.4617 46 29V34.8H57.5C59.025 34.8 60.4875 35.4111 61.5659 36.4988C62.6442 37.5865 63.25 39.0617 63.25 40.6C63.25 42.1383 62.6442 43.6135 61.5659 44.7012C60.4875 45.7889 59.025 46.4 57.5 46.4H40.25C38.725 46.4 37.2625 45.7889 36.1841 44.7012C35.1058 43.6135 34.5 42.1383 34.5 40.6V29C34.5 27.4617 35.1058 25.9865 36.1841 24.8988C37.2625 23.8111 38.725 23.2 40.25 23.2ZM74.75 34.8C73.225 34.8 71.7625 35.4111 70.6841 36.4988C69.6058 37.5865 69 39.0617 69 40.6C69 42.1383 69.6058 43.6135 70.6841 44.7012C71.7625 45.7889 73.225 46.4 74.75 46.4C76.275 46.4 77.7375 45.7889 78.8159 44.7012C79.8942 43.6135 80.5 42.1383 80.5 40.6C80.5 39.0617 79.8942 37.5865 78.8159 36.4988C77.7375 35.4111 76.275 34.8 74.75 34.8ZM34.5 58C34.5 56.4617 35.1058 54.9865 36.1841 53.8988C37.2625 52.8111 38.725 52.2 40.25 52.2H46C47.525 52.2 48.9875 52.8111 50.0659 53.8988C51.1442 54.9865 51.75 56.4617 51.75 58C51.75 59.5383 51.1442 61.0135 50.0659 62.1012C48.9875 63.1889 47.525 63.8 46 63.8V75.4C46 76.9383 45.3942 78.4135 44.3159 79.5012C43.2375 80.5889 41.775 81.2 40.25 81.2C38.725 81.2 37.2625 80.5889 36.1841 79.5012C35.1058 78.4135 34.5 76.9383 34.5 75.4V58ZM23 46.4C24.525 46.4 25.9875 45.7889 27.0659 44.7012C28.1442 43.6135 28.75 42.1383 28.75 40.6C28.75 39.0617 28.1442 37.5865 27.0659 36.4988C25.9875 35.4111 24.525 34.8 23 34.8H5.75C4.22501 34.8 2.76247 35.4111 1.68414 36.4988C0.605802 37.5865 0 39.0617 0 40.6C0 42.1383 0.605802 43.6135 1.68414 44.7012C2.76247 45.7889 4.22501 46.4 5.75 46.4H23ZM80.5 58C80.5 59.5383 79.8942 61.0135 78.8159 62.1012C77.7375 63.1889 76.275 63.8 74.75 63.8H63.25C61.725 63.8 60.2625 63.1889 59.1841 62.1012C58.1058 61.0135 57.5 59.5383 57.5 58C57.5 56.4617 58.1058 54.9865 59.1841 53.8988C60.2625 52.8111 61.725 52.2 63.25 52.2H74.75C76.275 52.2 77.7375 52.8111 78.8159 53.8988C79.8942 54.9865 80.5 56.4617 80.5 58ZM74.75 81.2C76.275 81.2 77.7375 80.5889 78.8159 79.5012C79.8942 78.4135 80.5 76.9383 80.5 75.4C80.5 73.8617 79.8942 72.3865 78.8159 71.2988C77.7375 70.2111 76.275 69.6 74.75 69.6H57.5C55.975 69.6 54.5125 70.2111 53.4341 71.2988C52.3558 72.3865 51.75 73.8617 51.75 75.4C51.75 76.9383 52.3558 78.4135 53.4341 79.5012C54.5125 80.5889 55.975 81.2 57.5 81.2H74.75Z" fill="white"/>
</svg>
